<svg xmlns="http://www.w3.org/2000/svg" width="126" height="104" viewBox="0 0 126 104">
  <metadata><?xpacket begin="﻿" id="W5M0MpCehiHzreSzNTczkc9d"?>
<x:xmpmeta xmlns:x="adobe:ns:meta/" x:xmptk="Adobe XMP Core 5.6-c138 79.159824, 2016/09/14-01:09:01        ">
   <rdf:RDF xmlns:rdf="http://www.w3.org/1999/02/22-rdf-syntax-ns#">
      <rdf:Description rdf:about=""/>
   </rdf:RDF>
</x:xmpmeta>
                                                                                                    
                                                                                                    
                                                                                                    
                                                                                                    
                                                                                                    
                                                                                                    
                                                                                                    
                                                                                                    
                                                                                                    
                                                                                                    
                                                                                                    
                                                                                                    
                                                                                                    
                                                                                                    
                                                                                                    
                                                                                                    
                                                                                                    
                                                                                                    
                                                                                                    
                                                                                                    
                           
<?xpacket end="w"?></metadata>
<defs>
    <style>
      .cls-1 {
        fill: #00b900;
        fill-rule: evenodd;
      }
    </style>
  </defs>
  <path class="cls-1" d="M75.775,79.886l-0.207-.3a6.39,6.39,0,0,1,.571-7.9c0.285-.328.6-0.681,0.986-1.085a7.645,7.645,0,0,1,10.768-.933c2.594,1.867,5.189,3.834,7.654,5.7,0.493,0.353.96,0.731,1.453,1.085,0.363-.4.727-0.833,1.116-1.236q3.853-4.313,7.654-8.627a50.416,50.416,0,0,0,2.154-14.6C107.922,23.282,83.974,0,54.448,0,24.948,0.025,1,23.307,1,52.013S24.948,104,54.474,104A54.148,54.148,0,0,0,86.439,93.683c-2.854-3.607-5.76-7.24-8.588-10.847C77.073,81.853,76.4,80.844,75.775,79.886ZM69.834,72.52a17.252,17.252,0,0,1-8.925,5.55,2.428,2.428,0,0,0-2.154,2.775c0.078,1.539,0,3.077,0,4.616a1.938,1.938,0,0,1-2.1,2.144c-1.686.05-3.4,0.05-5.111,0a2.039,2.039,0,0,1-2.205-2.27c-0.026-1.11-.026-2.245-0.026-3.355-0.026-2.472-.1-2.573-2.569-2.951a33.222,33.222,0,0,1-9.081-2.523c-2.257-1.059-2.491-1.614-1.842-3.91,0.493-1.715.96-3.43,1.5-5.121,0.623-1.967,1.168-2.22,3.036-1.261A29.782,29.782,0,0,0,50.426,69.14a12.881,12.881,0,0,0,6.616-.832c3.918-1.665,4.54-6.1,1.219-8.753A16.2,16.2,0,0,0,54.5,57.411c-3.451-1.463-7.031-2.6-10.3-4.49-5.293-3.077-8.64-7.29-8.251-13.545C36.39,32.312,40.489,27.9,47.157,25.552c2.75-.984,2.75-0.933,2.776-3.733V18.994c0.052-2.119.415-2.472,2.569-2.522,0.675-.025,1.349,0,2,0,4.592,0,4.592,0,4.618,4.465,0.026,3.153,0,3.178,3.243,3.657A28.9,28.9,0,0,1,69.5,26.662a2.006,2.006,0,0,1,1.349,2.7c-0.571,1.917-1.116,3.859-1.738,5.776-0.6,1.816-1.194,2.069-2.984,1.236A22.976,22.976,0,0,0,54.811,34.2a8.758,8.758,0,0,0-3.01.605c-3.425,1.463-3.97,5.121-1.064,7.391a20.86,20.86,0,0,0,4.9,2.674,87.892,87.892,0,0,1,8.951,3.935C73.8,53.7,76.294,64.877,69.834,72.52Zm55.731-15.034c-1.246-.984-2.1-1.488-2.88-1.488-0.882,0-1.661.656-2.854,1.993q-9.03,10.178-18.058,20.331c-1.349,1.513-2.7,3.027-4.1,4.591-0.7-.53-1.349-1.009-2-1.513-3.555-2.674-7.057-5.373-10.638-7.971a3.756,3.756,0,0,0-2.1-.883,3.536,3.536,0,0,0-2.387,1.337,10.164,10.164,0,0,0-.7.782,1.837,1.837,0,0,0-.207,2.4c0.649,0.984,1.3,1.993,2.024,2.926q7.122,9.005,14.27,17.985a2.5,2.5,0,0,0,1.92,1.11,2.627,2.627,0,0,0,2.076-1.312q13.115-18.237,26.179-36.449C127.433,59.479,127.3,58.874,125.565,57.486Z" transform="translate(-1)"/>
</svg>
